<?xml version="1.0" encoding="utf-8"?>
<!-- Svg Vector Icons : http://www.onlinewebfonts.com/icon -->
<!DOCTYPE svg PUBLIC "-//W3C//DTD SVG 1.1//EN" "http://www.w3.org/Graphics/SVG/1.1/DTD/svg11.dtd">
<svg version="1.1" xmlns="http://www.w3.org/2000/svg" xmlns:xlink="http://www.w3.org/1999/xlink" x="0px" y="0px" viewBox="0 0 1000 1000" enable-background="new 0 0 1000 1000" xml:space="preserve">
<metadata> Svg Vector Icons : http://www.onlinewebfonts.com/icon </metadata>
<g><g transform="matrix(1 0 0 -1 0 480)"><path d="M498.9-110c136.4,0,247,132.4,247,295.6c0,163.3-110.6,284.3-247,284.3c-136.4,0-247-121-247-284.3C251.9,22.4,362.5-110,498.9-110z M933.9-364.8c0,0-52.1,131.4-117.8,206.1c-65.7,74.7-142.8,0-142.8,0s-34-70.2-147.3-72.5h-38.5c-113.3,2.3-147.3,72.5-147.3,72.5s-86.1,74.7-151.8,0C122.8-233.4,65-362.6,65-362.6l-36.3-82.7c0-70.2,86.1-64.6,86.1-64.6h775.9c0,0,80.4-6.8,80.4,63.4L933.9-364.8z"/></g></g>
</svg>